<svg xmlns="http://www.w3.org/2000/svg" viewBox="0 0 60 119">
  <!-- Banner-shaped field: rectangle + 6 downward triangles -->
  <path d="M0,0 H60 V104 L55,117 L50,104 L45,117 L40,104 L35,117 L30,104 L25,117 L20,104 L15,117 L10,104 L5,117 L0,104 Z"
        fill="#0d2257"/>

  <!-- Outer gold border following full banner outline -->
  <path d="M0,0 H60 V104 L55,117 L50,104 L45,117 L40,104 L35,117 L30,104 L25,117 L20,104 L15,117 L10,104 L5,117 L0,104 Z"
        fill="none" stroke="#ffd700" stroke-width="2.5" stroke-linejoin="miter"/>

  <!-- Inner decorative border (rectangular portion only) -->
  <rect x="4.5" y="4.5" width="51" height="81"
        fill="none" stroke="#ffd700" stroke-width="0.8" opacity="0.6"/>

  <!-- Emblem: Font Awesome solid hand-fist (viewBox 0 0 448 512)
       scaled to 28×32, centred at (30, 40) -->
  <g transform="translate(30,40) scale(0.0625) translate(-224,-256)" fill="#ffd700">
    <path d="M192 0c17.7 0 32 14.3 32 32l0 112-64 0 0-112c0-17.7 14.3-32 32-32zM64 64c0-17.7 14.3-32 32-32s32 14.3 32 32l0 80-64 0 0-80zm192 0c0-17.7 14.3-32 32-32s32 14.3 32 32l0 96c0 17.7-14.3 32-32 32s-32-14.3-32-32l0-96zm96 64c0-17.7 14.3-32 32-32s32 14.3 32 32l0 64c0 17.7-14.3 32-32 32s-32-14.3-32-32l0-64zm-96 88l0-.6c9.4 5.4 20.3 8.6 32 8.6c13.2 0 25.4-4 35.6-10.8c8.7 24.9 32.5 42.8 60.4 42.8c11.7 0 22.6-3.1 32-8.6l0 8.6c0 52.3-25.1 98.8-64 128l0 96c0 17.7-14.3 32-32 32l-160 0c-17.7 0-32-14.3-32-32l0-78.4c-17.3-7.9-33.2-18.8-46.9-32.5L69.5 357.5C45.5 333.5 32 300.9 32 267l0-27c0-35.3 28.7-64 64-64l88 0c22.1 0 40 17.9 40 40s-17.9 40-40 40l-56 0c-8.8 0-16 7.2-16 16s7.2 16 16 16l56 0c39.8 0 72-32.2 72-72z"/>
  </g>

  <!-- Motto divider -->
  <line x1="6" y1="68" x2="54" y2="68" stroke="#ffd700" stroke-width="0.8" opacity="0.8"/>

  <!-- Motto text -->
  <text x="30" y="77"
        text-anchor="middle"
        font-family="Georgia, serif"
        font-size="4.8"
        font-weight="bold"
        letter-spacing="1.2"
        fill="#ffd700">HUMANITAS</text>
</svg>
